# xmcd
#
# Track frame offsets: 
#        150
#        12980
#        45107
#        64291
#        93053
#        113196
#        131241
#        152677
#        167522
#        184259
#        195762
#        209036
#        229722
#        252357
#
# Disc length: 3796 seconds
#
# Revision: 0
# Processed by: cddbd v1.5.2PL0 Copyright (c) Steve Scherf et al.
# Submitted via: ExactAudioCopy v0.99pb5
#
DISCID=b40ed20e
DTITLE=Laillista Douppia - Suomi Lyriikkaa II
DYEAR=2000
DGENRE=Hip-Hop
TTITLE0=Esipuhe
TTITLE1=Passaa Hundijala Vesi (Passaa Kilju Millenium Versio)
TTITLE2=Jengi On Kehiss‰
TTITLE3=Laillista Douppia
TTITLE4=Askeleita
TTITLE5=Kyynaamat
TTITLE6=Kvantitatiivinen Annos
TTITLE7=Pyh‰ Sota
TTITLE8=Tekemisen‰ Ei Mit‰‰n
TTITLE9=Siit‰ Ei En‰‰ Nousta
TTITLE10=Puhelin Soi
TTITLE11=El‰m‰ni Ateistina
TTITLE12=K.M.P.
TTITLE13=R‰pp‰rit R‰pp‰‰ (R‰p‰titi R‰pp‰‰)
EXTD=
EXTT0=
EXTT1=
EXTT2=
EXTT3=
EXTT4=
EXTT5=
EXTT6=
EXTT7=
EXTT8=
EXTT9=
EXTT10=
EXTT11=
EXTT12=
EXTT13=
PLAYORDER=
